<svg width="30" height="33" viewBox="0 0 30 33" fill="none" xmlns="http://www.w3.org/2000/svg">
<path d="M29.6731 16.04C29.6731 16.9226 29.3975 17.7833 28.8843 18.5034C28.3712 19.2234 27.6458 19.767 26.8085 20.0592C26.583 20.1068 26.3592 20.1657 26.138 20.2324C24.6057 20.7075 23.2557 21.6366 22.2684 22.8954C21.2812 24.1542 20.7038 25.6827 20.6135 27.2766C20.5959 27.5998 20.5979 27.9237 20.6196 28.2466C20.5365 29.0069 20.249 29.731 19.7874 30.3427C19.3258 30.9544 18.707 31.4311 17.9962 31.7228C17.2853 32.0145 16.5086 32.1104 15.7476 32.0004C14.9867 31.8904 14.2695 31.5785 13.6716 31.0977C13.0736 30.6168 12.6169 29.9845 12.3495 29.2674C12.082 28.5504 12.0137 27.7749 12.1517 27.0224C12.2896 26.27 12.6288 25.5684 13.1335 24.9914C13.6383 24.4144 14.29 23.9832 15.0201 23.7432C15.1861 23.7057 15.3515 23.6621 15.5164 23.6125C17.0966 23.14 18.4877 22.186 19.4935 20.885C20.4992 19.5839 21.0689 18.0016 21.1219 16.3613C21.1283 16.1621 21.1283 15.9629 21.1219 15.7637C21.0499 14.1512 20.4791 12.6002 19.4875 11.3225C18.4959 10.0448 17.1318 9.10274 15.5817 8.6251C15.3858 8.56361 15.1873 8.51165 14.9879 8.46748C14.259 8.2167 13.6118 7.77475 13.1146 7.18832C12.6174 6.60189 12.2888 5.89277 12.1633 5.13589C12.0379 4.379 12.1203 3.60247 12.4019 2.88834C12.6835 2.17421 13.1539 1.54901 13.7632 1.0788C14.3726 0.608584 15.0983 0.310827 15.8638 0.216988C16.6292 0.12315 17.406 0.236714 18.1119 0.545682C18.8178 0.85465 19.4267 1.34755 19.8742 1.97229C20.3218 2.59703 20.5913 3.33041 20.6544 4.09494C20.6465 4.30971 20.6483 4.52795 20.6544 4.74013C20.7335 6.35773 21.3143 7.91127 22.3169 9.18733C23.3195 10.4634 24.6948 11.3994 26.2538 11.8666C26.41 11.9134 26.5667 11.9547 26.724 11.9905C27.5819 12.2703 28.329 12.8125 28.8586 13.5397C29.3882 14.2669 29.6732 15.142 29.6731 16.04Z" fill="white"/>
<path d="M0.248751 26.8886C0.306008 26.0091 0.636014 25.1689 1.19332 24.4837C1.75063 23.7985 2.50782 23.302 3.36062 23.0626C3.59281 23.0296 3.82151 22.9858 4.04673 22.9309C5.76944 22.516 7.30124 21.5357 8.39467 20.1481C9.4881 18.7606 10.0793 17.0469 10.0728 15.2839C10.2048 14.5308 10.5381 13.8268 11.038 13.246C11.5378 12.6651 12.1856 12.2288 12.9134 11.9829C13.6413 11.737 14.4222 11.6905 15.1743 11.8484C15.9264 12.0062 16.6219 12.3625 17.1878 12.8799C17.7537 13.3973 18.1691 14.0567 18.3904 14.7889C18.6117 15.521 18.6308 16.299 18.4456 17.041C18.2603 17.783 17.8777 18.4617 17.3378 19.0059C16.7979 19.5501 16.1206 19.9396 15.3771 20.1337C15.203 20.1614 15.0303 20.1952 14.859 20.235C13.2518 20.6072 11.8026 21.4719 10.7159 22.7072C9.6292 23.9425 8.95992 25.486 8.80248 27.1199C8.78332 27.3121 8.77287 27.5052 8.76852 27.6984C8.69067 28.303 8.4833 28.8839 8.16041 29.402C7.83752 29.9201 7.40663 30.3632 6.89684 30.7015C6.38704 31.0398 5.8102 31.2654 5.20527 31.363C4.60033 31.4606 3.98139 31.4279 3.39023 31.2672C3.23785 31.2101 3.08461 31.1581 2.92876 31.1122C2.09186 30.7785 1.38223 30.1906 0.901004 29.4322C0.419778 28.6738 0.191516 27.7836 0.248751 26.8886Z" fill="white"/>
</svg>
