<svg width="51" height="52" viewBox="0 0 51 52" fill="none" xmlns="http://www.w3.org/2000/svg">
<path d="M48.6487 41.0969C52.3937 23.3425 49.3447 11.6324 47.3947 8.04241L47.3876 8.0293L47.3819 8.01553C46.5875 6.11244 44.7568 3.48053 41.861 1.8012C39.1392 0.2228 35.4571 -0.525996 30.7632 0.992912L30.766 1.00138C13.6566 6.81024 5.18415 15.4137 3.10414 18.9293L3.09655 18.9421L3.08769 18.9541C1.86309 20.6108 0.542536 23.5349 0.580339 26.8946C0.615935 30.0582 1.85558 33.6309 5.56378 36.9208L5.5654 36.9188C19.2531 48.4494 30.9096 51.1969 34.967 51.1455L34.9818 51.1453L34.9966 51.1466C37.0334 51.33 40.1996 50.9394 43.0433 49.1688C45.4596 47.6642 47.6579 45.1546 48.7316 41.1146L48.6487 41.0969Z" fill="#F7F3FA"/>
</svg>
