<svg width="61" height="29" viewBox="0 0 61 29" fill="none" xmlns="http://www.w3.org/2000/svg">
<path fill-rule="evenodd" clip-rule="evenodd" d="M60.1147 14.5808C60.1147 22.3339 46.747 28.6192 30.2573 28.6192C13.7671 28.6192 0.399506 22.3339 0.399506 14.5808C0.399506 6.82824 13.7671 0.543335 30.2573 0.543335C46.7471 0.543335 60.1147 6.82815 60.1147 14.5808ZM49.3927 8.00863H44.2719L43.6481 9.80113H46.9626L43.1819 11.1171L42.932 11.844L48.7498 9.92621L49.3927 8.00863ZM16.7435 11.1548H14.6575C14.6575 11.1548 16.5908 5.97467 16.7458 5.58305C17.0216 4.88917 17.1863 4.93691 17.1863 4.93691H14.3052C14.6619 5.10848 14.3459 5.78471 14.3459 5.78471C14.3459 5.78471 12.0383 12.2449 11.8775 12.5676C11.7168 12.891 11.5964 12.9316 11.5964 12.9316H16.5858L17.2837 11.0183C17.2236 11.2005 16.7435 11.1548 16.7435 11.1548ZM25.4955 12.9233H27.8455C27.8455 12.9233 27.6845 12.6836 27.7851 12.4214C27.9243 12.0572 29.171 8.64624 29.171 8.64624L29.713 12.9233H31.8418L34.6324 5.31516C34.6324 5.31516 34.7466 4.95832 34.9023 4.95832L32.6404 4.95163C32.6404 4.95163 32.7051 5.21425 32.6245 5.41625C32.5447 5.61825 31.2588 9.0703 31.2588 9.0703L30.7568 4.95171H28.3274C28.3274 4.95171 28.4531 5.15338 28.3727 5.37536C28.3071 5.55545 25.7971 12.4816 25.7971 12.4816C25.7971 12.4816 25.6365 12.9233 25.4955 12.9233ZM36.2399 4.95389C36.2399 4.95389 36.4406 5.27687 36.1789 6.0235C35.9178 6.77071 33.8696 12.3221 33.8696 12.3221C33.8696 12.3221 33.7084 12.8443 33.4881 12.9458L36.7013 12.9421C36.7013 12.9421 40.5965 13.0868 41.8018 8.97081C41.8018 8.97081 43.328 4.91317 38.9099 4.95389H36.2399ZM36.5807 11.1038C36.5807 11.1038 36.591 11.1007 36.9519 11.1007C37.4986 11.1007 38.511 10.9795 39.1912 9.31427C40.3092 6.57716 38.7494 6.66971 38.7494 6.66971H38.1468L36.5807 11.1038ZM8.00541 19.3691H13.1261L13.7492 17.5763H10.4351L14.2156 16.2606L14.4661 15.534L8.64815 17.4518L8.00541 19.3691ZM16.9792 22.6759C16.8983 22.6759 16.8983 22.4153 16.8983 22.4153L17.8401 19.9029C17.8401 19.9029 19.0134 22.2173 19.094 22.3789C19.1744 22.5406 19.1337 22.6751 19.1337 22.6751H21.9406C21.6729 22.6751 21.3967 22.1637 21.3967 22.1637L19.9994 19.6431C21.9539 19.6431 22.5791 17.6956 22.5791 17.6956C23.5429 14.6001 20.2989 14.6807 20.2989 14.6807H16.9792C17.2199 14.95 17.0323 15.5153 17.0323 15.5153C17.0323 15.5153 14.9706 21.4408 14.8103 21.8987C14.6495 22.3562 14.3551 22.6759 14.3551 22.6759H16.9792ZM18.9686 16.5188L18.4245 18.1266H18.9333C18.9333 18.1266 19.9243 18.2143 20.2899 17.4223C20.2899 17.4223 20.7177 16.5147 19.522 16.5147C19.2603 16.5147 18.9686 16.5188 18.9686 16.5188ZM46.0228 22.7052C45.822 22.7093 45.9618 22.2153 45.9618 22.2153L46.8022 19.9321C46.8022 19.9321 47.935 22.2469 48.0145 22.409C48.0951 22.5703 48.0551 22.7048 48.0551 22.7048H50.9617C50.6937 22.7048 50.399 22.1934 50.399 22.1934L49.0011 19.672C50.9566 19.672 51.5448 17.7948 51.5448 17.7948C52.5715 14.5535 49.3017 14.7105 49.3017 14.7105H46.0083C46.2497 14.9797 46.0622 15.545 46.0622 15.545C46.0622 15.545 43.9146 21.4932 43.7534 21.9503C43.5929 22.4089 43.2845 22.7007 43.2845 22.7007L46.0228 22.7052ZM47.9367 18.1556C47.9367 18.1556 48.9201 18.2304 49.2211 17.4558C49.5763 16.5434 48.6898 16.5675 48.6898 16.5675H47.9629L47.4275 18.1556H47.9367ZM26.0502 22.8736C28.9477 22.8736 30.6719 20.0166 30.6719 17.9668C30.6719 15.8166 29.7928 14.475 27.7851 14.475C25.2235 14.475 23.5526 16.4288 23.1213 18.858C22.725 21.0919 23.9799 22.8736 26.0502 22.8736ZM26.2327 20.9844C26.9554 21.1185 27.75 20.5957 28.165 18.925C28.7942 16.3969 27.6344 16.3761 27.4228 16.3501C26.7815 16.2713 25.9255 17.0138 25.5777 18.5618C25.4184 19.2688 25.2495 20.8012 26.2327 20.9844ZM31.3597 14.7105C31.3597 14.7105 31.5589 14.818 31.5589 15.329V22.2469C31.5589 22.2469 31.5317 22.6256 31.3893 22.7048H33.5421C33.5421 22.7048 33.5421 22.5427 33.7558 22.2737C33.9702 22.0046 38.4415 15.9758 38.4415 15.9758C38.4415 15.9758 39.4612 14.7105 39.7285 14.7105H36.6473C36.6473 14.7105 36.8888 14.8722 36.7013 15.1682C36.5138 15.4644 33.775 19.5825 33.775 19.5825L33.8093 15.4287C33.8093 15.4287 33.8045 14.7627 34.0704 14.7067L31.3597 14.7105ZM44.3753 16.5965L45.0714 14.7087L39.8508 14.7092C39.8508 14.7092 40.0379 14.8753 39.7976 15.548C39.5562 16.2216 37.441 21.9533 37.441 21.9533C37.441 21.9533 37.0662 22.7067 36.9597 22.7067H42.3408L42.9836 20.7959C42.9836 20.7959 42.9035 20.9033 42.3947 20.9033H40.1185L40.6009 19.6114H42.3674C42.3674 19.6114 42.7427 19.5847 42.8229 19.6924L43.5456 17.6501C43.5456 17.6501 43.4928 17.8349 43.01 17.8349H41.2964L41.8059 16.4088H43.9742C43.9742 16.4088 44.2689 16.368 44.3753 16.5965ZM17.1579 12.9305H19.7335C19.7335 12.9305 19.7255 12.7317 19.7927 12.6025C19.9151 12.3693 20.2346 11.8065 20.2346 11.8065H22.8268L22.8318 12.5086C22.8318 12.5086 22.8451 12.7505 22.6543 12.9372H25.2249C25.2249 12.9372 25.034 12.8295 24.9989 12.5117L24.6764 5.48664C24.6764 5.48664 24.6625 5.03766 24.875 4.9431H22.325C22.325 4.9431 22.5036 5.165 22.1621 5.66966C21.8211 6.17441 17.4648 12.6678 17.4648 12.6678C17.4648 12.6678 17.3782 12.8347 17.1579 12.9305ZM22.7774 7.66199L21.3461 10.0031H22.798L22.7774 7.66199Z" fill="#414B47"/>
</svg>
